HIERARCHY
ROOT Hips
{
  OFFSET -35.4901 99.2528 17.4586
  CHANNELS 6 Xposition Yposition Zposition Zrotation Xrotation Yrotation
  JOINT LeftUpLeg
  {
    OFFSET 8.64259 1.95398 -2.38835
    CHANNELS 3 Zrotation Xrotation Yrotation
    JOINT LeftLeg
    {
      OFFSET 43.7702 0 0
      CHANNELS 3 Zrotation Xrotation Yrotation
      JOINT LeftFoot
      {
        OFFSET 40.6238 0 0
        CHANNELS 3 Zrotation Xrotation Yrotation
        JOINT LeftToeBase
        {
          OFFSET 12.7242 0 0
          CHANNELS 3 Zrotation Xrotation Yrotation
          End Site
          {
            OFFSET 0 0 0
          }
        }
      }
    }
  }
  JOINT RightUpLeg
  {
    OFFSET -8.2249 1.95398 -2.59336
    CHANNELS 3 Zrotation Xrotation Yrotation
    JOINT RightLeg
    {
      OFFSET 43.5653 0 0
      CHANNELS 3 Zrotation Xrotation Yrotation
      JOINT RightFoot
      {
        OFFSET 40.6238 0 0
        CHANNELS 3 Zrotation Xrotation Yrotation
        JOINT RightToeBase
        {
          OFFSET 12.7242 0 0
          CHANNELS 3 Zrotation Xrotation Yrotation
          End Site
          {
            OFFSET 0 0 0
          }
        }
      }
    }
  }
  JOINT Spine
  {
    OFFSET 0.165834 0.87714 6.61349
    CHANNELS 3 Zrotation Xrotation Yrotation
    JOINT Spine1
    {
      OFFSET 7.38963 1.71661e-005 0
      CHANNELS 3 Zrotation Xrotation Yrotation
      JOINT Spine2
      {
        OFFSET 11.9445 1.14441e-005 0
        CHANNELS 3 Zrotation Xrotation Yrotation
        JOINT Spine3
        {
          OFFSET 14.7254 4.19617e-005 0
          CHANNELS 3 Zrotation Xrotation Yrotation
          JOINT Spine4
          {
            OFFSET 10.9679 0 0
            CHANNELS 3 Zrotation Xrotation Yrotation
            JOINT RightShoulder
            {
              OFFSET 2.46616 -1.6653 3.69651
              CHANNELS 3 Zrotation Xrotation Yrotation
              JOINT RightArm
              {
                OFFSET 13.0012 0 0
                CHANNELS 3 Zrotation Xrotation Yrotation
                JOINT RightForeArm
                {
                  OFFSET 28.7848 1.52588e-005 0
                  CHANNELS 3 Zrotation Xrotation Yrotation
                  JOINT RightHand
                  {
                    OFFSET 26.5688 1.52588e-005 0
                    CHANNELS 3 Zrotation Xrotation Yrotation
                    End Site
                    {
                      OFFSET 0 0 0
                    }
                  }
                }
              }
            }
            JOINT LeftShoulder
            {
              OFFSET 2.38034 -1.29275 -3.7523
              CHANNELS 3 Zrotation Xrotation Yrotation
              JOINT LeftArm
              {
                OFFSET 16.3182 6.10351e-005 0
                CHANNELS 3 Zrotation Xrotation Yrotation
                JOINT LeftForeArm
                {
                  OFFSET 27.0901 0 0
                  CHANNELS 3 Zrotation Xrotation Yrotation
                  JOINT LeftHand
                  {
                    OFFSET 24.5451 1.52588e-005 0
                    CHANNELS 3 Zrotation Xrotation Yrotation
                    End Site
                    {
                      OFFSET 0 0 0
                    }
                  }
                }
              }
            }
            JOINT Neck
            {
              OFFSET 5.0226 -0.0266342 0
              CHANNELS 3 Zrotation Xrotation Yrotation
              JOINT Head
              {
                OFFSET 6.69364 2.86102e-005 0
                CHANNELS 3 Zrotation Xrotation Yrotation
                End Site
                {
                  OFFSET 0 0 0
                }
              }
            }
          }
        }
      }
    }
  }
}
MOTION
Frames:	16
Frame Time:	0.0416667
-240.238 96.6308 210.507 91.5414 15.5682 88.4369 -178.823 -2.11018 90.1261 -4.69331 -6.83455 1.11541 68.3146 4.14481 -2.35026 18.2456 -4.90809 7.66426 172.004 4.39104 87.8838 -11.5552 -27.9545 -2.3984 66.3891 -3.25902 1.68656 21.0149 1.91946 -3.28003 -0.19065 7.14098 -90.1301 12.5915 -0.440681 -0.208558 0.92065 -0.449452 -0.188963 -21.6148 -0.357665 -0.331369 -1.60215 -0.35763 -0.331361 92.5438 -27.9701 -102.329 45.8534 -6.12924 -3.9633 3.4301 -25.232 -13.8056 -25.6284 -0.0205939 -7.81565 -82.2607 -43.8844 89.842 -36.5251 10.5573 -3.59339 2.31061 -3.35794 -13.4023 2.21795 -0.296488 -9.50565 -8.24516 -32.4568 -16.2813 -6.24007 -30.7746 -16.943 
-240.039 96.5389 210.59 91.8579 15.9515 88.5078 -178.566 -2.39193 90.5824 -4.75681 -6.91951 1.06238 68.2682 4.08443 -3.64341 18.6292 -2.43959 4.23542 171.983 3.36647 88.0129 -10.157 -23.6472 -2.30696 67.9427 -3.58875 4.46755 18.9199 0.511457 0.0962237 -0.196897 7.19472 -90.1391 12.484 -0.457054 -0.225195 0.813141 -0.466534 -0.20487 -21.7223 -0.368247 -0.352147 -1.70966 -0.368274 -0.352158 92.527 -28.3164 -102.251 45.5788 -6.44062 -4.19703 3.3452 -25.4171 -14.0165 -25.3528 -0.0743697 -7.62387 -82.2482 -43.7766 89.852 -36.5584 9.45559 -3.31787 4.22527 1.41865 -13.9871 -1.45529 -0.118636 -8.31361 -8.25647 -32.4401 -16.6906 -6.25631 -30.7364 -16.7736 
-239.802 96.593 210.678 91.5531 16.6624 88.5138 -178.373 -2.12951 90.7528 -4.77181 -5.93108 0.869005 68.4324 4.15852 -3.30561 17.7392 -2.4685 4.27703 172.016 3.83196 88.0782 -11.1284 -26.5862 -2.32283 67.0219 -3.48656 1.87686 20.8416 1.66592 -2.67268 -0.205439 7.15996 -90.153 12.5534 -0.481087 -0.249764 0.882548 -0.491612 -0.228359 -21.6529 -0.383767 -0.382803 -1.64026 -0.383794 -0.382811 92.5645 -28.1329 -102.234 45.7498 -5.99403 -4.11427 3.49182 -23.5927 -13.8051 -26.6706 -0.179565 -7.07418 -82.4371 -44.1779 89.5827 -36.3754 9.88513 -3.43762 3.48246 -0.44159 -13.5794 -0.6981 -0.15439 -9.14184 -8.11805 -32.4472 -16.4448 -6.11819 -30.7498 -16.8323 
-239.425 96.5297 210.785 91.4158 17.1546 88.4632 -178.109 -2.07595 90.9661 -4.84949 -4.91024 0.641995 68.4987 4.21813 -2.95561 17.6225 -2.34112 4.10369 171.992 3.70265 88.1237 -10.9648 -25.7202 -2.2824 67.9345 -3.94145 0.890319 19.6842 0.350954 0.347503 -0.211665 7.15011 -90.1723 12.573 -0.502522 -0.285648 0.902158 -0.514642 -0.263261 -21.6333 -0.393466 -0.423476 -1.62062 -0.393456 -0.423481 92.7263 -27.4926 -102.107 46.2704 -6.32984 -4.03759 3.47279 -22.6391 -13.8276 -30.4574 -0.708482 -4.16271 -82.1999 -44.942 90.0382 -35.668 10.3591 -3.11686 3.00303 -1.56738 -14.1955 -0.699989 -0.148672 -8.3448 -6.82579 -32.3916 -15.6911 -7.12615 -30.4584 -16.3967 
-238.948 96.5466 211.154 91.0308 18.0505 88.8768 -177.366 -1.68205 91.9993 -5.10608 -3.76588 0.21332 68.8353 4.34679 -3.97806 17.4473 -2.72564 4.63128 172.47 3.75617 88.8168 -11.4787 -24.3181 -2.34702 67.7863 -3.67802 2.93533 20.4807 2.38447 -4.18618 -0.202162 7.13708 -90.1769 12.5991 -0.485908 -0.296766 0.928181 -0.498509 -0.275096 -21.6072 -0.374256 -0.429082 -1.59453 -0.374252 -0.42908 92.6638 -28.0117 -102.068 45.896 -5.92215 -4.08881 3.62297 -25.0521 -13.7224 -27.093 0.128259 -8.34788 -82.5389 -44.0905 89.4093 -36.4416 9.97755 -3.41205 2.96006 -2.30386 -13.7902 -0.624484 -0.143964 -7.87214 -7.20074 -32.6037 -16.8265 -6.34448 -30.7353 -16.0785 
-238.204 96.5523 211.451 91.5436 18.7949 88.698 -176.765 -2.41458 92.5759 -5.23989 -2.46317 -0.0479312 69.2784 4.55307 -3.85151 18.5272 -2.88062 4.84763 172.274 2.73115 88.9724 -11.4646 -23.9401 -2.08872 68.7034 -4.17977 1.57502 19.3266 1.69539 -2.46577 -0.161696 7.19827 -90.1661 12.4768 -0.40012 -0.285584 0.805916 -0.412305 -0.267701 -21.7293 -0.295786 -0.392631 -1.71665 -0.295803 -0.392641 92.9682 -27.849 -101.487 46.4603 -6.00266 -4.04661 3.91806 -24.2313 -13.4535 -24.8978 -0.105837 -7.29767 -82.5642 -44.7337 89.4322 -35.4888 10.0347 -3.63333 2.82105 -2.43739 -13.6568 0.206777 -0.151735 -7.07942 -7.16617 -32.7945 -16.652 -6.46749 -30.9179 -16.1809 
-237.203 96.4968 211.765 92.7678 20.1421 87.8345 -175.975 -3.4242 93.1214 -6.15663 -0.39884 -0.470444 69.5033 4.8004 -4.74073 19.377 -4.10816 6.5926 171.784 1.19984 88.5262 -11.8895 -23.0784 -1.8634 69.9133 -4.69493 1.49684 18.8591 1.7773 -2.55704 -0.167863 7.35112 -90.047 12.1718 -0.355945 -0.0535277 0.500948 -0.357967 -0.0378124 -22.0345 -0.323387 -0.15803 -2.0219 -0.323416 -0.158032 92.5508 -28.3991 -102.176 46.2883 -6.12387 -3.85448 4.22431 -23.2843 -13.5734 -25.3353 0.105826 -8.19387 -82.4037 -44.3276 89.6513 -35.0385 10.0563 -3.80344 2.53253 -3.472 -13.8019 0.189214 -0.166861 -7.79885 -7.73462 -32.4921 -16.8574 -6.21369 -30.7084 -16.4701 
-236.005 96.3913 212.349 93.9318 21.916 87.0726 -175.058 -4.23207 93.8493 -7.03791 2.28879 -0.661361 70.0529 5.48166 -3.92866 19.2755 -2.95086 4.94476 171.609 -0.29365 88.7697 -12.8414 -21.2197 -1.6848 71.1938 -5.16976 1.51903 18.5226 1.86163 -2.66719 -0.150596 7.47098 -89.9556 11.932 -0.278533 0.11847 0.261076 -0.273028 0.130607 -22.2743 -0.301251 0.0292877 -2.26168 -0.301228 0.0292823 92.1485 -28.7832 -102.873 46.357 -7.03505 -3.38598 3.77792 -24.4298 -14.1579 -27.7445 -0.398318 -5.76265 -82.5964 -44.6037 89.3673 -33.9179 9.75356 -3.92329 2.07825 -4.90662 -13.1743 1.45132 -0.265973 -9.53253 -8.377 -31.802 -15.5648 -6.26749 -30.1642 -17.4966 
-235.029 95.8652 212.874 94.4533 24.1151 86.2543 -174.493 -1.67476 94.189 -13.0836 4.18591 -0.437634 72.5574 6.84322 -4.26826 22.6023 -3.61956 5.97456 170.84 0.167081 88.4223 -15.4104 -19.7713 -0.98477 73.7791 -6.48898 -1.36779 18.0757 -1.05838 3.46781 -0.082057 7.51522 -89.8832 11.8435 -0.108213 0.244424 0.172537 -0.0973712 0.24895 -22.3625 -0.17667 0.200603 -2.34987 -0.176682 0.200599 91.7127 -28.9815 -103.694 45.9262 -7.00082 -3.40752 4.09656 -20.8434 -14.3886 -28.1491 -0.165441 -6.35118 -82.7054 -44.864 89.2176 -33.0124 9.11755 -3.62011 2.31952 -4.57657 -12.6486 2.69598 -0.256493 -8.11843 -7.5845 -28.8159 -11.5953 -5.90431 -27.406 -16.8174 
-234.206 95.1735 213.154 95.5823 27.7823 85.2174 -174.582 5.688 94.1791 -28.0335 7.66358 0.672457 72.6262 6.73134 -4.67201 24.3811 -2.92515 4.92456 169.136 0.0845636 87.4693 -18.4308 -17.3827 0.539902 76.9307 -7.08611 1.36349 17.3626 1.00385 -0.710586 -0.0102631 7.65211 -89.9214 11.5696 0.0164087 0.154634 -0.101312 0.0232112 0.15376 -22.6364 -0.030823 0.152426 -2.62377 -0.0308363 0.152414 91.4198 -28.8255 -104.343 44.9372 -6.78174 -3.59436 4.45336 -19.0082 -15.1857 -28.1628 -0.0833999 -6.55162 -82.5825 -45.3018 89.4581 -32.73 8.57977 -3.72072 2.39149 -5.0714 -12.5078 2.42306 -0.266648 -8.99669 -5.41221 -22.8487 -6.9501 -5.49854 -21.7277 -13.8317 
-233.197 94.8428 213.03 96.3151 30.8421 83.8195 -174.318 14.2642 92.8138 -41.3724 10.6027 0.845918 70.4354 5.55563 -3.67353 21.0044 -3.86748 6.31086 168.62 -0.656934 86.8893 -19.3631 -14.0659 0.640837 78.5078 -7.52204 -0.16725 18.2464 -1.42628 4.22553 0.262868 7.78379 -89.9375 11.3062 0.552221 0.0697891 -0.364682 0.554759 0.0454076 -22.9004 0.505721 0.232531 -2.88779 0.505715 0.232526 90.7374 -29.1267 -105.615 42.8547 -6.23429 -3.62952 3.35732 -21.3879 -17.1383 -24.1933 0.347473 -9.33237 -82.3739 -45.2608 89.7886 -33.1447 7.85109 -4.0005 2.82385 -4.63629 -11.572 3.55522 -0.220126 -7.25115 -3.70974 -16.097 -4.03203 -5.69982 -15.276 -10.4638 
-232.175 94.8641 212.013 96.1958 32.68 81.3443 -174.691 18.8467 89.2358 -39.5583 12.7481 -0.852401 68.1397 4.41856 -3.03468 24.8837 -4.57447 7.54198 167.596 -0.491591 84.342 -20.4919 -13.0483 0.189426 79.6393 -7.68883 0.340631 19.6876 -0.873477 2.98707 0.615311 7.85679 -89.7037 11.1587 1.3624 0.456983 -0.511586 1.3812 0.396561 -23.0506 1.16207 0.845351 -3.03793 1.16205 0.845339 90.5453 -28.8224 -106.118 42.5878 -6.96009 -5.11366 2.48832 -20.5111 -18.5063 -23.8831 0.49196 -10.0648 -82.6416 -45.0072 89.3352 -33.3372 7.41794 -1.60395 2.78191 -4.82081 -12.4246 1.04709 -0.224249 -8.73449 -3.45212 -10.5705 -2.57401 -4.62199 -10.0561 -7.11882 
-230.778 94.9852 210.346 95.6519 34.9169 79.5503 -176.777 21.5591 85.8092 -29.0734 11.4529 -2.04279 67.333 3.87593 -4.78043 22.7067 -4.91932 7.94109 166.544 -1.50599 82.1728 -19.2858 -11.1777 -0.16962 80.5274 -7.90514 0.420113 20.3737 -0.989308 3.206 0.82484 7.90744 -89.5616 11.0538 1.84528 0.694796 -0.615964 1.87409 0.61288 -23.1576 1.55113 1.21733 -3.14491 1.55116 1.21734 90.8882 -27.9705 -105.742 42.18 -8.67603 -7.9851 2.04021 -19.3146 -20.5455 -25.2746 0.646766 -10.3552 -82.5212 -46.0194 89.6247 -32.6069 6.29513 0.369037 3.12571 -4.29634 -11.5321 0.414628 -0.193693 -8.60866 -3.16806 -7.41717 0.499591 -3.85795 -7.32109 -6.23741 
-228.714 94.6333 208.157 95.3356 35.9394 79.0545 -179.037 21.7894 84.1856 -14.1758 6.90666 -2.16472 65.7524 3.83975 -1.45264 25.7467 -1.05689 1.96156 166.097 -3.10529 81.1782 -19.0531 -10.1489 -0.567701 81.9836 -8.4708 0.336091 21.9891 -1.08996 3.3447 1.07296 7.99648 -89.6067 10.8765 2.31813 0.564659 -0.792461 2.34073 0.462022 -23.3402 2.04125 1.23549 -3.32752 2.04123 1.23548 91.2275 -26.5461 -105.582 41.2214 -10.2827 -10.9627 1.50281 -19.0563 -22.9014 -26.2395 0.468176 -9.23854 -81.8913 -47.7798 90.7668 -32.1648 6.30043 3.12783 2.79566 -4.51024 -11.9587 0.381269 -0.168598 -7.62542 -2.0837 -5.66045 3.98375 -4.03816 -5.98412 -6.16664 
-225.652 93.934 205.297 95.8564 36.1043 79.0722 179.207 22.6009 84.6472 -7.74898 2.17444 -2.6903 67.435 5.1933 1.75046 19.4391 -2.62009 4.48366 166.095 -6.8058 81.0941 -18.2737 -9.74347 -1.26919 83.6411 -9.53081 -1.29095 22.43 -1.50647 4.28641 1.27399 8.04195 -89.6341 10.7865 2.70562 0.476338 -0.88171 2.72396 0.356701 -23.4354 2.43732 1.26791 -3.42277 2.43729 1.26789 89.5454 -28.7765 -108.155 38.2072 -9.45964 -12.0856 0.102256 -17.6922 -25.8198 -26.9867 0.607402 -9.58151 -82.6019 -47.6321 89.6496 -33.9713 5.34289 6.54376 3.02624 -4.03448 -11.4288 -0.137347 -0.151805 -7.49385 -3.64555 -4.41392 3.57126 -1.78824 -4.77528 -4.63564 
-221.58 92.7552 201.529 95.4547 34.9662 80.1383 179.192 23.404 85.78 -8.37341 -4.44261 -2.89038 66.585 4.97985 -2.02534 16.7454 -2.17829 3.90128 164.931 -10.807 80.1604 -16.6768 -10.5672 -1.18313 85.2205 -10.6043 -1.42896 24.5238 -1.77767 4.90688 1.40019 8.05443 -89.6841 10.7629 2.93396 0.357175 -0.904794 2.94682 0.227585 -23.4628 2.69087 1.22304 -3.45018 2.69089 1.22305 89.4857 -28.159 -108.528 37.7554 -10.309 -16.1782 0.470245 -16.6332 -25.8726 -27.3193 0.744995 -9.99182 -82.2077 -48.3159 90.3213 -35.2334 4.93314 8.05878 3.19019 -3.35516 -10.392 -0.347595 -0.138123 -7.05463 -2.44143 -3.12353 4.68983 -2.30641 -3.64006 -4.3369 
